<mxfile host="65bd71144e">
    <diagram id="43zxWScDndsoy9MhIaab" name="ページ1">
        <mxGraphModel dx="978" dy="1167" grid="1" gridSize="10" guides="1" tooltips="1" connect="1" arrows="1" fold="1" page="1" pageScale="1" pageWidth="827" pageHeight="1169" math="0" shadow="0">
            <root>
                <mxCell id="0"/>
                <mxCell id="1" parent="0"/>
                <mxCell id="2" value="" style="rounded=0;whiteSpace=wrap;html=1;fillColor=none;" parent="1" vertex="1">
                    <mxGeometry x="80" y="80" width="460" height="400" as="geometry"/>
                </mxCell>
                <mxCell id="3" value="リバーシで学ぶアプリケーション設計入門" style="rounded=0;whiteSpace=wrap;html=1;fillColor=none;" parent="1" vertex="1">
                    <mxGeometry x="80" y="80" width="460" height="60" as="geometry"/>
                </mxCell>
                <mxCell id="5" value="対戦する" style="rounded=1;whiteSpace=wrap;html=1;fillColor=none;" parent="1" vertex="1">
                    <mxGeometry x="266.5" y="170" width="90" height="40" as="geometry"/>
                </mxCell>
                <mxCell id="6" value="過去の対戦結果" style="rounded=0;whiteSpace=wrap;html=1;fillColor=none;" parent="1" vertex="1">
                    <mxGeometry x="120" y="250" width="380" height="190" as="geometry"/>
                </mxCell>
                <mxCell id="7" value="" style="rounded=0;whiteSpace=wrap;html=1;fillColor=none;" parent="1" vertex="1">
                    <mxGeometry x="80" y="540" width="460" height="400" as="geometry"/>
                </mxCell>
                <mxCell id="8" value="リバーシで学ぶアプリケーション設計入門" style="rounded=0;whiteSpace=wrap;html=1;fillColor=none;" parent="1" vertex="1">
                    <mxGeometry x="80" y="540" width="460" height="60" as="geometry"/>
                </mxCell>
                <mxCell id="9" value="白の番はスキップです" style="rounded=1;whiteSpace=wrap;html=1;fillColor=none;" parent="1" vertex="1">
                    <mxGeometry x="210" y="630" width="200" height="40" as="geometry"/>
                </mxCell>
                <mxCell id="10" value="過去の対戦結果" style="rounded=0;whiteSpace=wrap;html=1;fillColor=none;" parent="1" vertex="1">
                    <mxGeometry x="205" y="690" width="205" height="180" as="geometry"/>
                </mxCell>
                <mxCell id="13" value="次は黒の番です" style="text;html=1;strokeColor=none;fillColor=none;align=center;verticalAlign=middle;whiteSpace=wrap;rounded=0;" parent="1" vertex="1">
                    <mxGeometry x="261.25" y="890" width="92.5" height="30" as="geometry"/>
                </mxCell>
            </root>
        </mxGraphModel>
    </diagram>
</mxfile>
